<svg width="899" height="197" viewBox="0 0 899 197" fill="none" xmlns="http://www.w3.org/2000/svg">
<path d="M94.974 70V19.096H113.406C118.734 19.096 123.198 20.152 126.798 22.264C130.446 24.328 133.182 27.28 135.006 31.12C136.878 34.912 137.814 39.4 137.814 44.584C137.814 49.768 136.902 54.256 135.078 58.048C133.254 61.84 130.518 64.792 126.87 66.904C123.27 68.968 118.806 70 113.478 70H94.974ZM102.606 63.016H113.118C117.054 63.016 120.27 62.248 122.766 60.712C125.262 59.128 127.11 56.968 128.31 54.232C129.51 51.448 130.11 48.232 130.11 44.584C130.11 41.032 129.51 37.864 128.31 35.08C127.158 32.296 125.334 30.112 122.838 28.528C120.39 26.896 117.222 26.08 113.334 26.08H102.606V63.016ZM145.565 70V32.056H152.981V70H145.565ZM149.237 27.016C147.797 27.016 146.621 26.584 145.709 25.72C144.845 24.808 144.413 23.656 144.413 22.264C144.413 20.872 144.869 19.744 145.781 18.88C146.693 17.968 147.845 17.512 149.237 17.512C150.533 17.512 151.661 17.968 152.621 18.88C153.629 19.744 154.133 20.872 154.133 22.264C154.133 23.656 153.653 24.808 152.693 25.72C151.781 26.584 150.629 27.016 149.237 27.016ZM162.159 70V32.056H169.143L169.575 36.52C170.439 35.272 171.399 34.312 172.455 33.64C173.559 32.92 174.735 32.392 175.983 32.056C177.231 31.72 178.503 31.552 179.799 31.552C182.343 31.552 184.431 32.08 186.063 33.136C187.743 34.192 189.039 35.632 189.951 37.456C190.863 36.16 191.895 35.08 193.047 34.216C194.199 33.304 195.471 32.632 196.863 32.2C198.255 31.768 199.743 31.552 201.327 31.552C204.159 31.552 206.439 32.176 208.167 33.424C209.943 34.624 211.215 36.256 211.983 38.32C212.799 40.384 213.207 42.76 213.207 45.448V70H205.719V48.4C205.719 47.248 205.671 46.096 205.575 44.944C205.479 43.792 205.191 42.712 204.711 41.704C204.279 40.648 203.631 39.808 202.767 39.184C201.951 38.512 200.775 38.176 199.239 38.176C197.751 38.176 196.503 38.512 195.495 39.184C194.535 39.856 193.743 40.768 193.119 41.92C192.543 43.024 192.111 44.224 191.823 45.52C191.583 46.816 191.463 48.112 191.463 49.408V70H183.975V48.328C183.975 47.224 183.927 46.096 183.831 44.944C183.735 43.792 183.495 42.712 183.111 41.704C182.727 40.648 182.079 39.808 181.167 39.184C180.303 38.512 179.127 38.176 177.639 38.176C175.479 38.176 173.799 38.8 172.599 40.048C171.447 41.248 170.655 42.736 170.223 44.512C169.791 46.24 169.575 47.896 169.575 49.48V70H162.159ZM238.629 70.432C234.645 70.432 231.309 69.616 228.621 67.984C225.933 66.352 223.893 64.096 222.501 61.216C221.157 58.288 220.485 54.928 220.485 51.136C220.485 47.296 221.181 43.912 222.573 40.984C224.013 38.056 226.077 35.752 228.765 34.072C231.501 32.392 234.789 31.552 238.629 31.552C241.557 31.552 244.101 32.104 246.261 33.208C248.421 34.264 250.197 35.704 251.589 37.528C253.029 39.352 254.085 41.392 254.757 43.648C255.429 45.856 255.717 48.16 255.621 50.56C255.621 51.088 255.597 51.592 255.549 52.072C255.501 52.552 255.453 53.056 255.405 53.584H227.973C228.117 55.504 228.597 57.256 229.413 58.84C230.277 60.424 231.477 61.696 233.013 62.656C234.549 63.568 236.445 64.024 238.701 64.024C239.949 64.024 241.149 63.88 242.301 63.592C243.501 63.256 244.557 62.752 245.469 62.08C246.429 61.36 247.101 60.448 247.485 59.344H254.973C254.349 61.888 253.221 64 251.589 65.68C250.005 67.312 248.061 68.512 245.757 69.28C243.501 70.048 241.125 70.432 238.629 70.432ZM228.117 47.68H248.277C248.229 45.808 247.797 44.152 246.981 42.712C246.165 41.224 245.037 40.072 243.597 39.256C242.157 38.392 240.429 37.96 238.413 37.96C236.205 37.96 234.357 38.416 232.869 39.328C231.429 40.24 230.301 41.44 229.485 42.928C228.717 44.368 228.261 45.952 228.117 47.68ZM263.268 70V32.056H270.324L270.684 37.384C271.644 35.992 272.796 34.888 274.14 34.072C275.484 33.208 276.924 32.584 278.46 32.2C279.996 31.768 281.484 31.552 282.924 31.552C286.572 31.552 289.428 32.344 291.492 33.928C293.604 35.464 295.092 37.552 295.956 40.192C296.868 42.784 297.324 45.736 297.324 49.048V70H289.836V50.56C289.836 49.024 289.74 47.512 289.548 46.024C289.356 44.536 288.948 43.216 288.324 42.064C287.748 40.864 286.908 39.928 285.804 39.256C284.7 38.536 283.212 38.176 281.34 38.176C279.036 38.176 277.092 38.8 275.508 40.048C273.924 41.296 272.724 42.976 271.908 45.088C271.092 47.2 270.684 49.576 270.684 52.216V70H263.268ZM320.343 70.432C318.567 70.432 316.791 70.264 315.015 69.928C313.239 69.592 311.583 68.992 310.047 68.128C308.511 67.264 307.215 66.112 306.159 64.672C305.103 63.184 304.431 61.36 304.143 59.2H311.703C312.087 60.352 312.759 61.288 313.719 62.008C314.727 62.728 315.831 63.256 317.031 63.592C318.279 63.928 319.503 64.096 320.703 64.096C321.423 64.096 322.215 64.048 323.079 63.952C323.991 63.856 324.855 63.64 325.671 63.304C326.487 62.968 327.159 62.488 327.687 61.864C328.215 61.192 328.479 60.304 328.479 59.2C328.479 58.336 328.239 57.616 327.759 57.04C327.327 56.464 326.703 56.008 325.887 55.672C325.119 55.288 324.183 55 323.079 54.808C320.919 54.328 318.591 53.872 316.095 53.44C313.647 52.96 311.487 52.144 309.615 50.992C308.943 50.56 308.343 50.08 307.815 49.552C307.287 48.976 306.831 48.328 306.447 47.608C306.063 46.888 305.775 46.12 305.583 45.304C305.391 44.488 305.295 43.6 305.295 42.64C305.295 40.672 305.679 38.992 306.447 37.6C307.263 36.208 308.367 35.08 309.759 34.216C311.151 33.304 312.735 32.632 314.511 32.2C316.287 31.768 318.159 31.552 320.127 31.552C322.671 31.552 324.975 31.96 327.039 32.776C329.103 33.592 330.807 34.792 332.151 36.376C333.495 37.96 334.287 39.952 334.527 42.352H327.543C327.255 41.056 326.415 40.024 325.023 39.256C323.679 38.44 321.975 38.032 319.911 38.032C319.191 38.032 318.399 38.08 317.535 38.176C316.719 38.272 315.927 38.488 315.159 38.824C314.391 39.16 313.767 39.64 313.287 40.264C312.807 40.84 312.567 41.608 312.567 42.568C312.567 43.48 312.783 44.248 313.215 44.872C313.695 45.496 314.367 46 315.231 46.384C316.143 46.768 317.175 47.08 318.327 47.32C319.959 47.704 321.711 48.064 323.583 48.4C325.503 48.736 327.063 49.096 328.263 49.48C329.847 49.912 331.191 50.536 332.295 51.352C333.447 52.168 334.311 53.2 334.887 54.448C335.511 55.696 335.823 57.208 335.823 58.984C335.823 61.288 335.367 63.184 334.455 64.672C333.543 66.112 332.319 67.264 330.783 68.128C329.295 68.992 327.615 69.592 325.743 69.928C323.919 70.264 322.119 70.432 320.343 70.432ZM342.862 70V32.056H350.278V70H342.862ZM346.534 27.016C345.094 27.016 343.918 26.584 343.006 25.72C342.142 24.808 341.71 23.656 341.71 22.264C341.71 20.872 342.166 19.744 343.078 18.88C343.99 17.968 345.142 17.512 346.534 17.512C347.83 17.512 348.958 17.968 349.918 18.88C350.926 19.744 351.43 20.872 351.43 22.264C351.43 23.656 350.95 24.808 349.99 25.72C349.078 26.584 347.926 27.016 346.534 27.016ZM376.376 70.432C372.44 70.432 369.104 69.64 366.368 68.056C363.632 66.424 361.544 64.144 360.104 61.216C358.712 58.288 358.016 54.904 358.016 51.064C358.016 47.176 358.736 43.792 360.176 40.912C361.616 37.984 363.704 35.704 366.44 34.072C369.176 32.392 372.512 31.552 376.448 31.552C380.384 31.552 383.72 32.392 386.456 34.072C389.192 35.704 391.256 37.984 392.648 40.912C394.04 43.84 394.736 47.248 394.736 51.136C394.736 54.928 394.016 58.288 392.576 61.216C391.184 64.144 389.12 66.424 386.384 68.056C383.696 69.64 380.36 70.432 376.376 70.432ZM376.376 63.808C378.968 63.808 381.056 63.232 382.64 62.08C384.272 60.928 385.472 59.392 386.24 57.472C387.008 55.504 387.392 53.368 387.392 51.064C387.392 48.76 387.008 46.648 386.24 44.728C385.472 42.808 384.272 41.272 382.64 40.12C381.056 38.92 378.968 38.32 376.376 38.32C373.832 38.32 371.744 38.92 370.112 40.12C368.48 41.272 367.28 42.808 366.512 44.728C365.792 46.648 365.432 48.76 365.432 51.064C365.432 53.416 365.792 55.552 366.512 57.472C367.28 59.392 368.48 60.928 370.112 62.08C371.744 63.232 373.832 63.808 376.376 63.808ZM402.347 70V32.056H409.403L409.763 37.384C410.723 35.992 411.875 34.888 413.219 34.072C414.563 33.208 416.003 32.584 417.539 32.2C419.075 31.768 420.563 31.552 422.003 31.552C425.651 31.552 428.507 32.344 430.571 33.928C432.683 35.464 434.171 37.552 435.035 40.192C435.947 42.784 436.403 45.736 436.403 49.048V70H428.915V50.56C428.915 49.024 428.819 47.512 428.627 46.024C428.435 44.536 428.027 43.216 427.403 42.064C426.827 40.864 425.987 39.928 424.883 39.256C423.779 38.536 422.291 38.176 420.419 38.176C418.115 38.176 416.171 38.8 414.587 40.048C413.003 41.296 411.803 42.976 410.987 45.088C410.171 47.2 409.763 49.576 409.763 52.216V70H402.347ZM464.995 70V32.056H472.411V70H464.995ZM468.667 27.016C467.227 27.016 466.051 26.584 465.139 25.72C464.275 24.808 463.843 23.656 463.843 22.264C463.843 20.872 464.299 19.744 465.211 18.88C466.123 17.968 467.275 17.512 468.667 17.512C469.963 17.512 471.091 17.968 472.051 18.88C473.059 19.744 473.563 20.872 473.563 22.264C473.563 23.656 473.083 24.808 472.123 25.72C471.211 26.584 470.059 27.016 468.667 27.016ZM495.773 70.432C493.997 70.432 492.221 70.264 490.445 69.928C488.669 69.592 487.013 68.992 485.477 68.128C483.941 67.264 482.645 66.112 481.589 64.672C480.533 63.184 479.861 61.36 479.573 59.2H487.133C487.517 60.352 488.189 61.288 489.149 62.008C490.157 62.728 491.261 63.256 492.461 63.592C493.709 63.928 494.933 64.096 496.133 64.096C496.853 64.096 497.645 64.048 498.509 63.952C499.421 63.856 500.285 63.64 501.101 63.304C501.917 62.968 502.589 62.488 503.117 61.864C503.645 61.192 503.909 60.304 503.909 59.2C503.909 58.336 503.669 57.616 503.189 57.04C502.757 56.464 502.133 56.008 501.317 55.672C500.549 55.288 499.613 55 498.509 54.808C496.349 54.328 494.021 53.872 491.525 53.44C489.077 52.96 486.917 52.144 485.045 50.992C484.373 50.56 483.773 50.08 483.245 49.552C482.717 48.976 482.261 48.328 481.877 47.608C481.493 46.888 481.205 46.12 481.013 45.304C480.821 44.488 480.725 43.6 480.725 42.64C480.725 40.672 481.109 38.992 481.877 37.6C482.693 36.208 483.797 35.08 485.189 34.216C486.581 33.304 488.165 32.632 489.941 32.2C491.717 31.768 493.589 31.552 495.557 31.552C498.101 31.552 500.405 31.96 502.469 32.776C504.533 33.592 506.237 34.792 507.581 36.376C508.925 37.96 509.717 39.952 509.957 42.352H502.973C502.685 41.056 501.845 40.024 500.453 39.256C499.109 38.44 497.405 38.032 495.341 38.032C494.621 38.032 493.829 38.08 492.965 38.176C492.149 38.272 491.357 38.488 490.589 38.824C489.821 39.16 489.197 39.64 488.717 40.264C488.237 40.84 487.997 41.608 487.997 42.568C487.997 43.48 488.213 44.248 488.645 44.872C489.125 45.496 489.797 46 490.661 46.384C491.573 46.768 492.605 47.08 493.757 47.32C495.389 47.704 497.141 48.064 499.013 48.4C500.933 48.736 502.493 49.096 503.693 49.48C505.277 49.912 506.621 50.536 507.725 51.352C508.877 52.168 509.741 53.2 510.317 54.448C510.941 55.696 511.253 57.208 511.253 58.984C511.253 61.288 510.797 63.184 509.885 64.672C508.973 66.112 507.749 67.264 506.213 68.128C504.725 68.992 503.045 69.592 501.173 69.928C499.349 70.264 497.549 70.432 495.773 70.432ZM554.034 70C551.058 70 548.634 69.592 546.762 68.776C544.89 67.912 543.498 66.568 542.586 64.744C541.722 62.92 541.29 60.544 541.29 57.616V38.68H535.314V32.056H541.29V21.112H548.706V32.056H558.282V38.68H548.706V56.68C548.706 58.936 549.114 60.64 549.93 61.792C550.746 62.896 552.45 63.448 555.042 63.448H557.994V70H554.034ZM564.628 70V19.096H572.044V37.384C573.052 36.088 574.204 35.008 575.5 34.144C576.844 33.28 578.284 32.632 579.82 32.2C581.356 31.768 582.892 31.552 584.428 31.552C588.076 31.552 590.932 32.344 592.996 33.928C595.06 35.464 596.524 37.552 597.388 40.192C598.252 42.832 598.684 45.808 598.684 49.12V70H591.196V50.848C591.196 49.312 591.076 47.8 590.836 46.312C590.644 44.824 590.26 43.48 589.684 42.28C589.108 41.032 588.22 40.048 587.02 39.328C585.868 38.56 584.308 38.176 582.34 38.176C580.468 38.176 578.86 38.584 577.516 39.4C576.22 40.216 575.164 41.32 574.348 42.712C573.58 44.056 573.004 45.544 572.62 47.176C572.236 48.76 572.044 50.344 572.044 51.928V70H564.628ZM624.222 70.432C620.238 70.432 616.902 69.616 614.214 67.984C611.526 66.352 609.486 64.096 608.094 61.216C606.75 58.288 606.078 54.928 606.078 51.136C606.078 47.296 606.774 43.912 608.166 40.984C609.606 38.056 611.67 35.752 614.358 34.072C617.094 32.392 620.382 31.552 624.222 31.552C627.15 31.552 629.694 32.104 631.854 33.208C634.014 34.264 635.79 35.704 637.182 37.528C638.622 39.352 639.678 41.392 640.35 43.648C641.022 45.856 641.31 48.16 641.214 50.56C641.214 51.088 641.19 51.592 641.142 52.072C641.094 52.552 641.046 53.056 640.998 53.584H613.566C613.71 55.504 614.19 57.256 615.006 58.84C615.87 60.424 617.07 61.696 618.606 62.656C620.142 63.568 622.038 64.024 624.294 64.024C625.542 64.024 626.742 63.88 627.894 63.592C629.094 63.256 630.15 62.752 631.062 62.08C632.022 61.36 632.694 60.448 633.078 59.344H640.566C639.942 61.888 638.814 64 637.182 65.68C635.598 67.312 633.654 68.512 631.35 69.28C629.094 70.048 626.718 70.432 624.222 70.432ZM613.71 47.68H633.87C633.822 45.808 633.39 44.152 632.574 42.712C631.758 41.224 630.63 40.072 629.19 39.256C627.75 38.392 626.022 37.96 624.006 37.96C621.798 37.96 619.95 38.416 618.462 39.328C617.022 40.24 615.894 41.44 615.078 42.928C614.31 44.368 613.854 45.952 613.71 47.68ZM668.62 70V32.056H675.676L676.036 37.384C676.996 35.992 678.148 34.888 679.492 34.072C680.836 33.208 682.276 32.584 683.812 32.2C685.348 31.768 686.836 31.552 688.276 31.552C691.924 31.552 694.78 32.344 696.844 33.928C698.956 35.464 700.444 37.552 701.308 40.192C702.22 42.784 702.676 45.736 702.676 49.048V70H695.188V50.56C695.188 49.024 695.092 47.512 694.9 46.024C694.708 44.536 694.3 43.216 693.676 42.064C693.1 40.864 692.26 39.928 691.156 39.256C690.052 38.536 688.564 38.176 686.692 38.176C684.388 38.176 682.444 38.8 680.86 40.048C679.276 41.296 678.076 42.976 677.26 45.088C676.444 47.2 676.036 49.576 676.036 52.216V70H668.62ZM728.215 70.432C724.231 70.432 720.895 69.616 718.207 67.984C715.519 66.352 713.479 64.096 712.087 61.216C710.743 58.288 710.071 54.928 710.071 51.136C710.071 47.296 710.767 43.912 712.159 40.984C713.599 38.056 715.663 35.752 718.351 34.072C721.087 32.392 724.375 31.552 728.215 31.552C731.143 31.552 733.687 32.104 735.847 33.208C738.007 34.264 739.783 35.704 741.175 37.528C742.615 39.352 743.671 41.392 744.343 43.648C745.015 45.856 745.303 48.16 745.207 50.56C745.207 51.088 745.183 51.592 745.135 52.072C745.087 52.552 745.039 53.056 744.991 53.584H717.559C717.703 55.504 718.183 57.256 718.999 58.84C719.863 60.424 721.063 61.696 722.599 62.656C724.135 63.568 726.031 64.024 728.287 64.024C729.535 64.024 730.735 63.88 731.887 63.592C733.087 63.256 734.143 62.752 735.055 62.08C736.015 61.36 736.687 60.448 737.071 59.344H744.559C743.935 61.888 742.807 64 741.175 65.68C739.591 67.312 737.647 68.512 735.343 69.28C733.087 70.048 730.711 70.432 728.215 70.432ZM717.703 47.68H737.863C737.815 45.808 737.383 44.152 736.567 42.712C735.751 41.224 734.623 40.072 733.183 39.256C731.743 38.392 730.015 37.96 727.999 37.96C725.791 37.96 723.943 38.416 722.455 39.328C721.015 40.24 719.887 41.44 719.071 42.928C718.303 44.368 717.847 45.952 717.703 47.68ZM760.774 70L748.966 32.056H757.246L765.598 62.224L774.382 32.056H783.67L792.454 62.224L800.662 32.056H808.942L797.134 70H787.702L778.918 40.984L770.206 70H760.774Z" fill="url(#paint0_linear_30_609)"/>
<path d="M18.9993 153.432C17.2233 153.432 15.4473 153.264 13.6713 152.928C11.8953 152.592 10.2393 151.992 8.7033 151.128C7.1673 150.264 5.8713 149.112 4.8153 147.672C3.7593 146.184 3.0873 144.36 2.7993 142.2H10.3593C10.7433 143.352 11.4153 144.288 12.3753 145.008C13.3833 145.728 14.4873 146.256 15.6873 146.592C16.9353 146.928 18.1593 147.096 19.3593 147.096C20.0793 147.096 20.8713 147.048 21.7353 146.952C22.6473 146.856 23.5113 146.64 24.3273 146.304C25.1433 145.968 25.8153 145.488 26.3433 144.864C26.8713 144.192 27.1353 143.304 27.1353 142.2C27.1353 141.336 26.8953 140.616 26.4153 140.04C25.9833 139.464 25.3593 139.008 24.5433 138.672C23.7753 138.288 22.8393 138 21.7353 137.808C19.5753 137.328 17.2473 136.872 14.7513 136.44C12.3033 135.96 10.1433 135.144 8.2713 133.992C7.5993 133.56 6.9993 133.08 6.4713 132.552C5.9433 131.976 5.4873 131.328 5.1033 130.608C4.7193 129.888 4.4313 129.12 4.2393 128.304C4.0473 127.488 3.9513 126.6 3.9513 125.64C3.9513 123.672 4.3353 121.992 5.1033 120.6C5.9193 119.208 7.0233 118.08 8.4153 117.216C9.8073 116.304 11.3913 115.632 13.1673 115.2C14.9433 114.768 16.8153 114.552 18.7833 114.552C21.3273 114.552 23.6313 114.96 25.6953 115.776C27.7593 116.592 29.4633 117.792 30.8073 119.376C32.1513 120.96 32.9433 122.952 33.1833 125.352H26.1993C25.9113 124.056 25.0713 123.024 23.6793 122.256C22.3353 121.44 20.6313 121.032 18.5673 121.032C17.8473 121.032 17.0553 121.08 16.1913 121.176C15.3753 121.272 14.5833 121.488 13.8153 121.824C13.0473 122.16 12.4233 122.64 11.9433 123.264C11.4633 123.84 11.2233 124.608 11.2233 125.568C11.2233 126.48 11.4393 127.248 11.8713 127.872C12.3513 128.496 13.0233 129 13.8873 129.384C14.7993 129.768 15.8313 130.08 16.9833 130.32C18.6153 130.704 20.3673 131.064 22.2393 131.4C24.1593 131.736 25.7193 132.096 26.9193 132.48C28.5033 132.912 29.8473 133.536 30.9513 134.352C32.1033 135.168 32.9673 136.2 33.5433 137.448C34.1673 138.696 34.4793 140.208 34.4793 141.984C34.4793 144.288 34.0233 146.184 33.1113 147.672C32.1993 149.112 30.9753 150.264 29.4393 151.128C27.9513 151.992 26.2713 152.592 24.3993 152.928C22.5753 153.264 20.7753 153.432 18.9993 153.432ZM56.2064 153.432C52.1264 153.432 49.1984 152.328 47.4224 150.12C45.6944 147.864 44.8304 144.72 44.8304 140.688V121.68H38.7824V115.056H44.8304V104.04H52.2464V115.056H63.8384V121.68H52.2464V139.464C52.2464 140.808 52.3664 142.032 52.6064 143.136C52.8944 144.24 53.4224 145.104 54.1904 145.728C54.9584 146.352 56.0624 146.688 57.5024 146.736C58.6064 146.736 59.5664 146.544 60.3824 146.16C61.2464 145.776 61.9424 145.344 62.4704 144.864L65.3504 150.408C64.4384 151.128 63.4784 151.728 62.4704 152.208C61.5104 152.64 60.5024 152.952 59.4464 153.144C58.3904 153.336 57.3104 153.432 56.2064 153.432ZM82.7941 153.432C81.0661 153.432 79.3861 153.216 77.7541 152.784C76.1701 152.304 74.7541 151.608 73.5061 150.696C72.2581 149.736 71.2501 148.56 70.4821 147.168C69.7621 145.728 69.4021 144.048 69.4021 142.128C69.4021 139.824 69.8341 137.928 70.6981 136.44C71.6101 134.904 72.8101 133.728 74.2981 132.912C75.7861 132.048 77.4901 131.448 79.4101 131.112C81.3781 130.728 83.4181 130.536 85.5301 130.536H94.8181C94.8181 128.664 94.5301 127.032 93.9541 125.64C93.3781 124.2 92.4661 123.096 91.2181 122.328C90.0181 121.512 88.4101 121.104 86.3941 121.104C85.1941 121.104 84.0421 121.248 82.9381 121.536C81.8821 121.776 80.9701 122.184 80.2021 122.76C79.4341 123.336 78.9061 124.104 78.6181 125.064H70.8421C71.1301 123.24 71.7781 121.68 72.7861 120.384C73.7941 119.04 75.0421 117.936 76.5301 117.072C78.0181 116.208 79.6021 115.584 81.2821 115.2C83.0101 114.768 84.7621 114.552 86.5381 114.552C92.0101 114.552 95.9461 116.16 98.3461 119.376C100.794 122.544 102.018 126.912 102.018 132.48V153H95.6101L95.3221 148.176C94.2181 149.664 92.8981 150.792 91.3621 151.56C89.8741 152.328 88.3861 152.832 86.8981 153.072C85.4101 153.312 84.0421 153.432 82.7941 153.432ZM83.9461 147.168C86.1061 147.168 88.0021 146.808 89.6341 146.088C91.2661 145.32 92.5381 144.24 93.4501 142.848C94.3621 141.408 94.8181 139.728 94.8181 137.808V136.224H88.0501C86.6581 136.224 85.2901 136.272 83.9461 136.368C82.6501 136.416 81.4501 136.608 80.3461 136.944C79.2901 137.232 78.4261 137.736 77.7541 138.456C77.1301 139.176 76.8181 140.208 76.8181 141.552C76.8181 142.848 77.1541 143.904 77.8261 144.72C78.4981 145.536 79.3861 146.16 80.4901 146.592C81.5941 146.976 82.7461 147.168 83.9461 147.168ZM110.917 153V115.056H117.973L118.333 120.384C119.293 118.992 120.445 117.888 121.789 117.072C123.133 116.208 124.573 115.584 126.109 115.2C127.645 114.768 129.133 114.552 130.573 114.552C134.221 114.552 137.077 115.344 139.141 116.928C141.253 118.464 142.741 120.552 143.605 123.192C144.517 125.784 144.973 128.736 144.973 132.048V153H137.485V133.56C137.485 132.024 137.389 130.512 137.197 129.024C137.005 127.536 136.597 126.216 135.973 125.064C135.397 123.864 134.557 122.928 133.453 122.256C132.349 121.536 130.861 121.176 128.989 121.176C126.685 121.176 124.741 121.8 123.157 123.048C121.573 124.296 120.373 125.976 119.557 128.088C118.741 130.2 118.333 132.576 118.333 135.216V153H110.917ZM169.143 153.432C165.351 153.432 162.207 152.592 159.711 150.912C157.263 149.184 155.415 146.856 154.167 143.928C152.967 141 152.367 137.712 152.367 134.064C152.367 130.368 152.991 127.056 154.239 124.128C155.487 121.152 157.383 118.824 159.927 117.144C162.471 115.416 165.687 114.552 169.575 114.552C171.015 114.552 172.455 114.72 173.895 115.056C175.383 115.392 176.751 115.92 177.999 116.64C179.295 117.312 180.399 118.224 181.311 119.376V102.096H188.727V153H181.599L181.311 147.816C180.447 149.112 179.367 150.192 178.071 151.056C176.823 151.872 175.431 152.472 173.895 152.856C172.359 153.24 170.775 153.432 169.143 153.432ZM170.367 146.808C172.815 146.808 174.831 146.208 176.415 145.008C178.047 143.808 179.271 142.224 180.087 140.256C180.903 138.288 181.311 136.152 181.311 133.848C181.311 131.496 180.903 129.384 180.087 127.512C179.319 125.592 178.119 124.08 176.487 122.976C174.903 121.824 172.863 121.248 170.367 121.248C167.775 121.248 165.711 121.848 164.175 123.048C162.639 124.2 161.511 125.76 160.791 127.728C160.119 129.696 159.783 131.856 159.783 134.208C159.783 135.936 159.975 137.568 160.359 139.104C160.743 140.592 161.343 141.936 162.159 143.136C163.023 144.288 164.127 145.2 165.471 145.872C166.815 146.496 168.447 146.808 170.367 146.808ZM209.919 153.432C208.191 153.432 206.511 153.216 204.879 152.784C203.295 152.304 201.879 151.608 200.631 150.696C199.383 149.736 198.375 148.56 197.607 147.168C196.887 145.728 196.527 144.048 196.527 142.128C196.527 139.824 196.959 137.928 197.823 136.44C198.735 134.904 199.935 133.728 201.423 132.912C202.911 132.048 204.615 131.448 206.535 131.112C208.503 130.728 210.543 130.536 212.655 130.536H221.943C221.943 128.664 221.655 127.032 221.079 125.64C220.503 124.2 219.591 123.096 218.343 122.328C217.143 121.512 215.535 121.104 213.519 121.104C212.319 121.104 211.167 121.248 210.063 121.536C209.007 121.776 208.095 122.184 207.327 122.76C206.559 123.336 206.031 124.104 205.743 125.064H197.967C198.255 123.24 198.903 121.68 199.911 120.384C200.919 119.04 202.167 117.936 203.655 117.072C205.143 116.208 206.727 115.584 208.407 115.2C210.135 114.768 211.887 114.552 213.663 114.552C219.135 114.552 223.071 116.16 225.471 119.376C227.919 122.544 229.143 126.912 229.143 132.48V153H222.735L222.447 148.176C221.343 149.664 220.023 150.792 218.487 151.56C216.999 152.328 215.511 152.832 214.023 153.072C212.535 153.312 211.167 153.432 209.919 153.432ZM211.071 147.168C213.231 147.168 215.127 146.808 216.759 146.088C218.391 145.32 219.663 144.24 220.575 142.848C221.487 141.408 221.943 139.728 221.943 137.808V136.224H215.175C213.783 136.224 212.415 136.272 211.071 136.368C209.775 136.416 208.575 136.608 207.471 136.944C206.415 137.232 205.551 137.736 204.879 138.456C204.255 139.176 203.943 140.208 203.943 141.552C203.943 142.848 204.279 143.904 204.951 144.72C205.623 145.536 206.511 146.16 207.615 146.592C208.719 146.976 209.871 147.168 211.071 147.168ZM238.042 153V115.056H245.026L245.386 120.528C246.346 119.04 247.45 117.864 248.698 117C249.946 116.136 251.314 115.512 252.802 115.128C254.29 114.744 255.85 114.552 257.482 114.552C257.914 114.552 258.322 114.552 258.706 114.552C259.09 114.552 259.45 114.552 259.786 114.552V121.68H257.482C254.746 121.68 252.466 122.232 250.642 123.336C248.866 124.44 247.546 125.976 246.682 127.944C245.866 129.912 245.458 132.168 245.458 134.712V153H238.042ZM280.026 153.432C276.234 153.432 273.09 152.592 270.594 150.912C268.146 149.184 266.298 146.856 265.05 143.928C263.85 141 263.25 137.712 263.25 134.064C263.25 130.368 263.874 127.056 265.122 124.128C266.37 121.152 268.266 118.824 270.81 117.144C273.354 115.416 276.57 114.552 280.458 114.552C281.898 114.552 283.338 114.72 284.778 115.056C286.266 115.392 287.634 115.92 288.882 116.64C290.178 117.312 291.282 118.224 292.194 119.376V102.096H299.61V153H292.482L292.194 147.816C291.33 149.112 290.25 150.192 288.954 151.056C287.706 151.872 286.314 152.472 284.778 152.856C283.242 153.24 281.658 153.432 280.026 153.432ZM281.25 146.808C283.698 146.808 285.714 146.208 287.298 145.008C288.93 143.808 290.154 142.224 290.97 140.256C291.786 138.288 292.194 136.152 292.194 133.848C292.194 131.496 291.786 129.384 290.97 127.512C290.202 125.592 289.002 124.08 287.37 122.976C285.786 121.824 283.746 121.248 281.25 121.248C278.658 121.248 276.594 121.848 275.058 123.048C273.522 124.2 272.394 125.76 271.674 127.728C271.002 129.696 270.666 131.856 270.666 134.208C270.666 135.936 270.858 137.568 271.242 139.104C271.626 140.592 272.226 141.936 273.042 143.136C273.906 144.288 275.01 145.2 276.354 145.872C277.698 146.496 279.33 146.808 281.25 146.808ZM331.992 153V121.68H325.944V115.056H331.992V111.24C331.992 108.36 332.4 106.032 333.216 104.256C334.08 102.432 335.4 101.088 337.176 100.224C339 99.36 341.376 98.928 344.304 98.928H349.272V105.48H345.168C343.68 105.48 342.504 105.744 341.64 106.272C340.824 106.752 340.248 107.496 339.912 108.504C339.576 109.464 339.408 110.64 339.408 112.032V115.056H349.272V121.68H339.408V153H331.992ZM371.47 153.432C367.534 153.432 364.198 152.64 361.462 151.056C358.726 149.424 356.638 147.144 355.198 144.216C353.806 141.288 353.11 137.904 353.11 134.064C353.11 130.176 353.83 126.792 355.27 123.912C356.71 120.984 358.798 118.704 361.534 117.072C364.27 115.392 367.606 114.552 371.542 114.552C375.478 114.552 378.814 115.392 381.55 117.072C384.286 118.704 386.35 120.984 387.742 123.912C389.134 126.84 389.83 130.248 389.83 134.136C389.83 137.928 389.11 141.288 387.67 144.216C386.278 147.144 384.214 149.424 381.478 151.056C378.79 152.64 375.454 153.432 371.47 153.432ZM371.47 146.808C374.062 146.808 376.15 146.232 377.734 145.08C379.366 143.928 380.566 142.392 381.334 140.472C382.102 138.504 382.486 136.368 382.486 134.064C382.486 131.76 382.102 129.648 381.334 127.728C380.566 125.808 379.366 124.272 377.734 123.12C376.15 121.92 374.062 121.32 371.47 121.32C368.926 121.32 366.838 121.92 365.206 123.12C363.574 124.272 362.374 125.808 361.606 127.728C360.886 129.648 360.526 131.76 360.526 134.064C360.526 136.416 360.886 138.552 361.606 140.472C362.374 142.392 363.574 143.928 365.206 145.08C366.838 146.232 368.926 146.808 371.47 146.808ZM397.44 153V115.056H404.424L404.784 120.528C405.744 119.04 406.848 117.864 408.096 117C409.344 116.136 410.712 115.512 412.2 115.128C413.688 114.744 415.248 114.552 416.88 114.552C417.312 114.552 417.72 114.552 418.104 114.552C418.488 114.552 418.848 114.552 419.184 114.552V121.68H416.88C414.144 121.68 411.864 122.232 410.04 123.336C408.264 124.44 406.944 125.976 406.08 127.944C405.264 129.912 404.856 132.168 404.856 134.712V153H397.44ZM461.038 153.432C457.054 153.432 453.718 152.616 451.03 150.984C448.39 149.352 446.398 147.096 445.054 144.216C443.758 141.288 443.11 137.928 443.11 134.136C443.11 130.392 443.782 127.056 445.126 124.128C446.518 121.152 448.582 118.824 451.318 117.144C454.102 115.416 457.534 114.552 461.614 114.552C464.398 114.552 466.87 115.032 469.03 115.992C471.19 116.904 472.942 118.272 474.286 120.096C475.678 121.872 476.59 124.104 477.022 126.792H469.606C468.982 124.824 467.926 123.408 466.438 122.544C464.998 121.68 463.294 121.248 461.326 121.248C458.686 121.248 456.574 121.872 454.99 123.12C453.454 124.368 452.326 125.976 451.606 127.944C450.886 129.912 450.526 131.976 450.526 134.136C450.526 136.392 450.886 138.48 451.606 140.4C452.374 142.32 453.526 143.88 455.062 145.08C456.646 146.232 458.71 146.808 461.254 146.808C463.174 146.808 464.95 146.4 466.582 145.584C468.214 144.72 469.27 143.28 469.75 141.264H477.382C476.95 144.048 475.942 146.352 474.358 148.176C472.774 149.952 470.806 151.272 468.454 152.136C466.15 153 463.678 153.432 461.038 153.432ZM501.477 153.432C497.541 153.432 494.205 152.64 491.469 151.056C488.733 149.424 486.645 147.144 485.205 144.216C483.813 141.288 483.117 137.904 483.117 134.064C483.117 130.176 483.837 126.792 485.277 123.912C486.717 120.984 488.805 118.704 491.541 117.072C494.277 115.392 497.613 114.552 501.549 114.552C505.485 114.552 508.821 115.392 511.557 117.072C514.293 118.704 516.357 120.984 517.749 123.912C519.141 126.84 519.837 130.248 519.837 134.136C519.837 137.928 519.117 141.288 517.677 144.216C516.285 147.144 514.221 149.424 511.485 151.056C508.797 152.64 505.461 153.432 501.477 153.432ZM501.477 146.808C504.069 146.808 506.157 146.232 507.741 145.08C509.373 143.928 510.573 142.392 511.341 140.472C512.109 138.504 512.493 136.368 512.493 134.064C512.493 131.76 512.109 129.648 511.341 127.728C510.573 125.808 509.373 124.272 507.741 123.12C506.157 121.92 504.069 121.32 501.477 121.32C498.933 121.32 496.845 121.92 495.213 123.12C493.581 124.272 492.381 125.808 491.613 127.728C490.893 129.648 490.533 131.76 490.533 134.064C490.533 136.416 490.893 138.552 491.613 140.472C492.381 142.392 493.581 143.928 495.213 145.08C496.845 146.232 498.933 146.808 501.477 146.808ZM527.448 153V102.096H534.864V153H527.448ZM544.042 153V102.096H551.458V153H544.042ZM572.732 153.432C571.004 153.432 569.324 153.216 567.692 152.784C566.108 152.304 564.692 151.608 563.444 150.696C562.196 149.736 561.188 148.56 560.42 147.168C559.7 145.728 559.34 144.048 559.34 142.128C559.34 139.824 559.772 137.928 560.636 136.44C561.548 134.904 562.748 133.728 564.236 132.912C565.724 132.048 567.428 131.448 569.348 131.112C571.316 130.728 573.356 130.536 575.468 130.536H584.756C584.756 128.664 584.468 127.032 583.892 125.64C583.316 124.2 582.404 123.096 581.156 122.328C579.956 121.512 578.348 121.104 576.332 121.104C575.132 121.104 573.98 121.248 572.876 121.536C571.82 121.776 570.908 122.184 570.14 122.76C569.372 123.336 568.844 124.104 568.556 125.064H560.78C561.068 123.24 561.716 121.68 562.724 120.384C563.732 119.04 564.98 117.936 566.468 117.072C567.956 116.208 569.54 115.584 571.22 115.2C572.948 114.768 574.7 114.552 576.476 114.552C581.948 114.552 585.884 116.16 588.284 119.376C590.732 122.544 591.956 126.912 591.956 132.48V153H585.548L585.26 148.176C584.156 149.664 582.836 150.792 581.3 151.56C579.812 152.328 578.324 152.832 576.836 153.072C575.348 153.312 573.98 153.432 572.732 153.432ZM573.884 147.168C576.044 147.168 577.94 146.808 579.572 146.088C581.204 145.32 582.476 144.24 583.388 142.848C584.3 141.408 584.756 139.728 584.756 137.808V136.224H577.988C576.596 136.224 575.228 136.272 573.884 136.368C572.588 136.416 571.388 136.608 570.284 136.944C569.228 137.232 568.364 137.736 567.692 138.456C567.068 139.176 566.756 140.208 566.756 141.552C566.756 142.848 567.092 143.904 567.764 144.72C568.436 145.536 569.324 146.16 570.428 146.592C571.532 146.976 572.684 147.168 573.884 147.168ZM620.006 153.432C618.422 153.432 616.91 153.264 615.47 152.928C614.078 152.592 612.758 152.064 611.51 151.344C610.31 150.576 609.23 149.64 608.27 148.536L608.054 153H600.854V102.096H608.27V120.168C609.614 118.344 611.414 116.952 613.67 115.992C615.926 115.032 618.254 114.552 620.654 114.552C624.446 114.552 627.566 115.416 630.014 117.144C632.462 118.824 634.262 121.128 635.414 124.056C636.614 126.936 637.214 130.224 637.214 133.92C637.214 137.568 636.59 140.88 635.342 143.856C634.094 146.784 632.198 149.112 629.654 150.84C627.158 152.568 623.942 153.432 620.006 153.432ZM619.214 146.88C621.854 146.88 623.942 146.28 625.478 145.08C627.014 143.88 628.118 142.296 628.79 140.328C629.462 138.36 629.798 136.248 629.798 133.992C629.798 131.64 629.438 129.504 628.718 127.584C628.046 125.664 626.918 124.128 625.334 122.976C623.798 121.824 621.734 121.248 619.142 121.248C616.79 121.248 614.798 121.896 613.166 123.192C611.534 124.44 610.286 126.048 609.422 128.016C608.606 129.984 608.198 132.024 608.198 134.136C608.198 136.344 608.558 138.432 609.278 140.4C610.046 142.32 611.246 143.88 612.878 145.08C614.51 146.28 616.622 146.88 619.214 146.88ZM661.79 153.432C657.854 153.432 654.518 152.64 651.782 151.056C649.046 149.424 646.958 147.144 645.518 144.216C644.126 141.288 643.43 137.904 643.43 134.064C643.43 130.176 644.15 126.792 645.59 123.912C647.03 120.984 649.118 118.704 651.854 117.072C654.59 115.392 657.926 114.552 661.862 114.552C665.798 114.552 669.134 115.392 671.87 117.072C674.606 118.704 676.67 120.984 678.062 123.912C679.454 126.84 680.15 130.248 680.15 134.136C680.15 137.928 679.43 141.288 677.99 144.216C676.598 147.144 674.534 149.424 671.798 151.056C669.11 152.64 665.774 153.432 661.79 153.432ZM661.79 146.808C664.382 146.808 666.47 146.232 668.054 145.08C669.686 143.928 670.886 142.392 671.654 140.472C672.422 138.504 672.806 136.368 672.806 134.064C672.806 131.76 672.422 129.648 671.654 127.728C670.886 125.808 669.686 124.272 668.054 123.12C666.47 121.92 664.382 121.32 661.79 121.32C659.246 121.32 657.158 121.92 655.526 123.12C653.894 124.272 652.694 125.808 651.926 127.728C651.206 129.648 650.846 131.76 650.846 134.064C650.846 136.416 651.206 138.552 651.926 140.472C652.694 142.392 653.894 143.928 655.526 145.08C657.158 146.232 659.246 146.808 661.79 146.808ZM687.761 153V115.056H694.745L695.105 120.528C696.065 119.04 697.169 117.864 698.417 117C699.665 116.136 701.033 115.512 702.521 115.128C704.009 114.744 705.569 114.552 707.201 114.552C707.633 114.552 708.041 114.552 708.425 114.552C708.809 114.552 709.169 114.552 709.505 114.552V121.68H707.201C704.465 121.68 702.185 122.232 700.361 123.336C698.585 124.44 697.265 125.976 696.401 127.944C695.585 129.912 695.177 132.168 695.177 134.712V153H687.761ZM727.208 153.432C725.48 153.432 723.8 153.216 722.168 152.784C720.584 152.304 719.168 151.608 717.92 150.696C716.672 149.736 715.664 148.56 714.896 147.168C714.176 145.728 713.816 144.048 713.816 142.128C713.816 139.824 714.248 137.928 715.112 136.44C716.024 134.904 717.224 133.728 718.712 132.912C720.2 132.048 721.904 131.448 723.824 131.112C725.792 130.728 727.832 130.536 729.944 130.536H739.232C739.232 128.664 738.944 127.032 738.368 125.64C737.792 124.2 736.88 123.096 735.632 122.328C734.432 121.512 732.824 121.104 730.808 121.104C729.608 121.104 728.456 121.248 727.352 121.536C726.296 121.776 725.384 122.184 724.616 122.76C723.848 123.336 723.32 124.104 723.032 125.064H715.256C715.544 123.24 716.192 121.68 717.2 120.384C718.208 119.04 719.456 117.936 720.944 117.072C722.432 116.208 724.016 115.584 725.696 115.2C727.424 114.768 729.176 114.552 730.952 114.552C736.424 114.552 740.36 116.16 742.76 119.376C745.208 122.544 746.432 126.912 746.432 132.48V153H740.024L739.736 148.176C738.632 149.664 737.312 150.792 735.776 151.56C734.288 152.328 732.8 152.832 731.312 153.072C729.824 153.312 728.456 153.432 727.208 153.432ZM728.36 147.168C730.52 147.168 732.416 146.808 734.048 146.088C735.68 145.32 736.952 144.24 737.864 142.848C738.776 141.408 739.232 139.728 739.232 137.808V136.224H732.464C731.072 136.224 729.704 136.272 728.36 136.368C727.064 136.416 725.864 136.608 724.76 136.944C723.704 137.232 722.84 137.736 722.168 138.456C721.544 139.176 721.232 140.208 721.232 141.552C721.232 142.848 721.568 143.904 722.24 144.72C722.912 145.536 723.8 146.16 724.904 146.592C726.008 146.976 727.16 147.168 728.36 147.168ZM771.315 153C768.339 153 765.915 152.592 764.043 151.776C762.171 150.912 760.779 149.568 759.867 147.744C759.003 145.92 758.571 143.544 758.571 140.616V121.68H752.595V115.056H758.571V104.112H765.987V115.056H775.563V121.68H765.987V139.68C765.987 141.936 766.395 143.64 767.211 144.792C768.027 145.896 769.731 146.448 772.323 146.448H775.275V153H771.315ZM781.909 153V115.056H789.325V153H781.909ZM785.581 110.016C784.141 110.016 782.965 109.584 782.053 108.72C781.189 107.808 780.757 106.656 780.757 105.264C780.757 103.872 781.213 102.744 782.125 101.88C783.037 100.968 784.189 100.512 785.581 100.512C786.877 100.512 788.005 100.968 788.965 101.88C789.973 102.744 790.477 103.872 790.477 105.264C790.477 106.656 789.997 107.808 789.037 108.72C788.125 109.584 786.973 110.016 785.581 110.016ZM815.423 153.432C811.487 153.432 808.151 152.64 805.415 151.056C802.679 149.424 800.591 147.144 799.151 144.216C797.759 141.288 797.063 137.904 797.063 134.064C797.063 130.176 797.783 126.792 799.223 123.912C800.663 120.984 802.751 118.704 805.487 117.072C808.223 115.392 811.559 114.552 815.495 114.552C819.431 114.552 822.767 115.392 825.503 117.072C828.239 118.704 830.303 120.984 831.695 123.912C833.087 126.84 833.783 130.248 833.783 134.136C833.783 137.928 833.063 141.288 831.623 144.216C830.231 147.144 828.167 149.424 825.431 151.056C822.743 152.64 819.407 153.432 815.423 153.432ZM815.423 146.808C818.015 146.808 820.103 146.232 821.687 145.08C823.319 143.928 824.519 142.392 825.287 140.472C826.055 138.504 826.439 136.368 826.439 134.064C826.439 131.76 826.055 129.648 825.287 127.728C824.519 125.808 823.319 124.272 821.687 123.12C820.103 121.92 818.015 121.32 815.423 121.32C812.879 121.32 810.791 121.92 809.159 123.12C807.527 124.272 806.327 125.808 805.559 127.728C804.839 129.648 804.479 131.76 804.479 134.064C804.479 136.416 804.839 138.552 805.559 140.472C806.327 142.392 807.527 143.928 809.159 145.08C810.791 146.232 812.879 146.808 815.423 146.808ZM841.393 153V115.056H848.449L848.809 120.384C849.769 118.992 850.921 117.888 852.265 117.072C853.609 116.208 855.049 115.584 856.585 115.2C858.121 114.768 859.609 114.552 861.049 114.552C864.697 114.552 867.553 115.344 869.617 116.928C871.729 118.464 873.217 120.552 874.081 123.192C874.993 125.784 875.449 128.736 875.449 132.048V153H867.961V133.56C867.961 132.024 867.865 130.512 867.673 129.024C867.481 127.536 867.073 126.216 866.449 125.064C865.873 123.864 865.033 122.928 863.929 122.256C862.825 121.536 861.337 121.176 859.465 121.176C857.161 121.176 855.217 121.8 853.633 123.048C852.049 124.296 850.849 125.976 850.033 128.088C849.217 130.2 848.809 132.576 848.809 135.216V153H841.393Z" fill="url(#paint1_linear_30_609)"/>
<path d="M266.827 184.166H264.832C264.755 183.74 264.613 183.365 264.404 183.041C264.195 182.717 263.939 182.442 263.637 182.217C263.334 181.991 262.996 181.82 262.621 181.705C262.25 181.59 261.856 181.533 261.438 181.533C260.684 181.533 260.008 181.722 259.412 182.102C258.819 182.481 258.351 183.037 258.005 183.77C257.665 184.503 257.494 185.398 257.494 186.455C257.494 187.52 257.665 188.419 258.005 189.152C258.351 189.885 258.822 190.439 259.418 190.814C260.015 191.189 260.686 191.376 261.432 191.376C261.845 191.376 262.237 191.321 262.608 191.21C262.983 191.095 263.322 190.927 263.624 190.705C263.927 190.484 264.182 190.213 264.391 189.893C264.604 189.57 264.751 189.199 264.832 188.781L266.827 188.788C266.72 189.431 266.513 190.023 266.206 190.565C265.904 191.102 265.514 191.566 265.037 191.958C264.564 192.346 264.023 192.646 263.413 192.859C262.804 193.072 262.139 193.179 261.419 193.179C260.285 193.179 259.275 192.911 258.389 192.374C257.503 191.832 256.804 191.059 256.292 190.053C255.785 189.048 255.532 187.848 255.532 186.455C255.532 185.057 255.787 183.857 256.299 182.856C256.81 181.85 257.509 181.079 258.395 180.542C259.282 180.001 260.29 179.73 261.419 179.73C262.113 179.73 262.761 179.83 263.362 180.031C263.967 180.227 264.51 180.516 264.992 180.9C265.474 181.279 265.872 181.744 266.187 182.293C266.503 182.839 266.716 183.463 266.827 184.166ZM271.488 187.17V193H269.577V179.909H271.462V184.78H271.584C271.814 184.251 272.165 183.832 272.638 183.521C273.111 183.21 273.729 183.054 274.492 183.054C275.165 183.054 275.753 183.192 276.256 183.469C276.763 183.746 277.155 184.16 277.432 184.71C277.714 185.255 277.854 185.937 277.854 186.755V193H275.943V186.985C275.943 186.265 275.758 185.707 275.387 185.31C275.016 184.91 274.501 184.71 273.84 184.71C273.388 184.71 272.984 184.805 272.626 184.997C272.272 185.189 271.993 185.47 271.788 185.841C271.588 186.207 271.488 186.651 271.488 187.17ZM283.802 193.217C283.18 193.217 282.617 193.102 282.114 192.872C281.612 192.638 281.213 192.299 280.919 191.856C280.629 191.413 280.484 190.869 280.484 190.226C280.484 189.672 280.591 189.216 280.804 188.858C281.017 188.5 281.305 188.217 281.667 188.008C282.029 187.799 282.434 187.641 282.881 187.535C283.329 187.428 283.785 187.347 284.249 187.292C284.837 187.224 285.315 187.168 285.681 187.126C286.048 187.079 286.314 187.004 286.48 186.902C286.646 186.8 286.729 186.634 286.729 186.403V186.359C286.729 185.8 286.572 185.368 286.256 185.061C285.945 184.754 285.481 184.601 284.863 184.601C284.22 184.601 283.712 184.744 283.342 185.029C282.975 185.31 282.722 185.624 282.581 185.969L280.785 185.56C280.998 184.963 281.309 184.482 281.718 184.115C282.131 183.744 282.607 183.476 283.144 183.31C283.68 183.139 284.245 183.054 284.837 183.054C285.229 183.054 285.645 183.101 286.084 183.195C286.527 183.284 286.94 183.45 287.324 183.693C287.712 183.936 288.029 184.283 288.276 184.735C288.524 185.183 288.647 185.764 288.647 186.48V193H286.781V191.658H286.704C286.58 191.905 286.395 192.148 286.148 192.386C285.901 192.625 285.583 192.823 285.195 192.981C284.808 193.138 284.343 193.217 283.802 193.217ZM284.217 191.683C284.746 191.683 285.198 191.579 285.573 191.37C285.952 191.161 286.239 190.888 286.435 190.552C286.636 190.211 286.736 189.847 286.736 189.459V188.193C286.668 188.261 286.536 188.325 286.34 188.385C286.148 188.44 285.928 188.489 285.681 188.532C285.434 188.57 285.193 188.607 284.959 188.641C284.725 188.67 284.528 188.696 284.371 188.717C284 188.764 283.661 188.843 283.354 188.954C283.052 189.065 282.809 189.224 282.626 189.433C282.447 189.638 282.357 189.911 282.357 190.251C282.357 190.724 282.532 191.082 282.881 191.325C283.231 191.564 283.676 191.683 284.217 191.683ZM296.316 183.182V184.716H290.953V183.182H296.316ZM292.391 180.83H294.302V190.117C294.302 190.488 294.358 190.767 294.469 190.955C294.579 191.138 294.722 191.263 294.897 191.332C295.076 191.396 295.27 191.428 295.478 191.428C295.632 191.428 295.766 191.417 295.881 191.396C295.996 191.374 296.086 191.357 296.15 191.344L296.495 192.923C296.384 192.966 296.226 193.009 296.022 193.051C295.817 193.098 295.562 193.124 295.255 193.128C294.752 193.136 294.283 193.047 293.849 192.859C293.414 192.672 293.062 192.382 292.794 191.99C292.525 191.598 292.391 191.106 292.391 190.513V180.83ZM301.456 191.21L301.361 191.907C301.297 192.418 301.188 192.951 301.035 193.505C300.885 194.063 300.73 194.581 300.568 195.058C300.41 195.536 300.28 195.915 300.178 196.196H298.823C298.878 195.932 298.955 195.574 299.053 195.122C299.151 194.675 299.247 194.174 299.341 193.62C299.434 193.066 299.505 192.501 299.552 191.926L299.616 191.21H301.456ZM313.924 193.198C312.974 193.198 312.155 192.983 311.469 192.553C310.788 192.118 310.263 191.519 309.897 190.756C309.53 189.994 309.347 189.12 309.347 188.136C309.347 187.138 309.535 186.259 309.91 185.496C310.285 184.729 310.813 184.13 311.495 183.7C312.177 183.269 312.98 183.054 313.905 183.054C314.65 183.054 315.315 183.192 315.899 183.469C316.483 183.742 316.954 184.126 317.312 184.62C317.674 185.114 317.889 185.692 317.957 186.352H316.097C315.995 185.892 315.761 185.496 315.394 185.163C315.032 184.831 314.546 184.665 313.937 184.665C313.404 184.665 312.937 184.805 312.537 185.087C312.141 185.364 311.832 185.76 311.61 186.276C311.388 186.787 311.278 187.392 311.278 188.091C311.278 188.807 311.386 189.425 311.604 189.945C311.821 190.464 312.128 190.867 312.524 191.153C312.925 191.438 313.396 191.581 313.937 191.581C314.299 191.581 314.627 191.515 314.921 191.383C315.219 191.246 315.469 191.053 315.669 190.801C315.874 190.55 316.016 190.247 316.097 189.893H317.957C317.889 190.528 317.682 191.095 317.337 191.594C316.992 192.092 316.53 192.484 315.95 192.77C315.375 193.055 314.7 193.198 313.924 193.198ZM324.677 193.198C323.756 193.198 322.953 192.987 322.267 192.565C321.581 192.143 321.048 191.553 320.669 190.795C320.29 190.036 320.1 189.15 320.1 188.136C320.1 187.117 320.29 186.227 320.669 185.464C321.048 184.701 321.581 184.109 322.267 183.687C322.953 183.265 323.756 183.054 324.677 183.054C325.597 183.054 326.401 183.265 327.087 183.687C327.773 184.109 328.305 184.701 328.685 185.464C329.064 186.227 329.254 187.117 329.254 188.136C329.254 189.15 329.064 190.036 328.685 190.795C328.305 191.553 327.773 192.143 327.087 192.565C326.401 192.987 325.597 193.198 324.677 193.198ZM324.683 191.594C325.28 191.594 325.774 191.436 326.166 191.121C326.558 190.805 326.848 190.386 327.035 189.862C327.227 189.337 327.323 188.76 327.323 188.129C327.323 187.503 327.227 186.928 327.035 186.403C326.848 185.875 326.558 185.451 326.166 185.131C325.774 184.812 325.28 184.652 324.683 184.652C324.082 184.652 323.584 184.812 323.187 185.131C322.795 185.451 322.504 185.875 322.312 186.403C322.124 186.928 322.03 187.503 322.03 188.129C322.03 188.76 322.124 189.337 322.312 189.862C322.504 190.386 322.795 190.805 323.187 191.121C323.584 191.436 324.082 191.594 324.683 191.594ZM335.602 193.192C334.81 193.192 334.102 192.989 333.48 192.585C332.862 192.175 332.376 191.594 332.023 190.839C331.673 190.081 331.499 189.171 331.499 188.11C331.499 187.049 331.675 186.141 332.029 185.387C332.387 184.633 332.877 184.055 333.499 183.655C334.121 183.254 334.827 183.054 335.615 183.054C336.224 183.054 336.715 183.156 337.085 183.361C337.46 183.561 337.75 183.795 337.955 184.064C338.163 184.332 338.325 184.569 338.44 184.773H338.555V179.909H340.467V193H338.6V191.472H338.44C338.325 191.681 338.159 191.92 337.942 192.188C337.729 192.457 337.435 192.691 337.06 192.891C336.685 193.092 336.199 193.192 335.602 193.192ZM336.024 191.562C336.574 191.562 337.038 191.417 337.418 191.127C337.801 190.833 338.091 190.426 338.287 189.906C338.487 189.386 338.587 188.781 338.587 188.091C338.587 187.409 338.489 186.812 338.293 186.301C338.097 185.79 337.81 185.391 337.43 185.106C337.051 184.82 336.582 184.678 336.024 184.678C335.449 184.678 334.969 184.827 334.586 185.125C334.202 185.423 333.913 185.83 333.717 186.346C333.525 186.862 333.429 187.443 333.429 188.091C333.429 188.747 333.527 189.337 333.723 189.862C333.919 190.386 334.209 190.801 334.592 191.108C334.98 191.411 335.457 191.562 336.024 191.562ZM347.966 193.198C346.999 193.198 346.166 192.991 345.467 192.578C344.772 192.161 344.235 191.575 343.856 190.82C343.481 190.062 343.293 189.173 343.293 188.155C343.293 187.149 343.481 186.263 343.856 185.496C344.235 184.729 344.764 184.13 345.441 183.7C346.123 183.269 346.92 183.054 347.832 183.054C348.386 183.054 348.923 183.146 349.443 183.329C349.962 183.512 350.429 183.8 350.842 184.192C351.256 184.584 351.582 185.093 351.82 185.719C352.059 186.342 352.178 187.098 352.178 187.989V188.666H344.374V187.234H350.305C350.305 186.732 350.203 186.286 349.999 185.898C349.794 185.506 349.506 185.197 349.136 184.972C348.769 184.746 348.339 184.633 347.845 184.633C347.308 184.633 346.839 184.765 346.438 185.029C346.042 185.289 345.735 185.63 345.518 186.052C345.305 186.469 345.198 186.923 345.198 187.413V188.532C345.198 189.188 345.313 189.746 345.543 190.207C345.778 190.667 346.104 191.018 346.521 191.261C346.939 191.5 347.427 191.619 347.985 191.619C348.347 191.619 348.678 191.568 348.976 191.466C349.274 191.359 349.532 191.202 349.749 190.993C349.967 190.784 350.133 190.526 350.248 190.219L352.057 190.545C351.912 191.078 351.652 191.545 351.277 191.945C350.906 192.342 350.44 192.651 349.877 192.872C349.319 193.089 348.682 193.198 347.966 193.198ZM357.325 191.21L357.23 191.907C357.166 192.418 357.057 192.951 356.904 193.505C356.754 194.063 356.599 194.581 356.437 195.058C356.279 195.536 356.149 195.915 356.047 196.196H354.692C354.747 195.932 354.824 195.574 354.922 195.122C355.02 194.675 355.116 194.174 355.21 193.62C355.303 193.066 355.374 192.501 355.421 191.926L355.485 191.21H357.325ZM369.793 193.198C368.843 193.198 368.024 192.983 367.338 192.553C366.656 192.118 366.132 191.519 365.766 190.756C365.399 189.994 365.216 189.12 365.216 188.136C365.216 187.138 365.404 186.259 365.779 185.496C366.154 184.729 366.682 184.13 367.364 183.7C368.046 183.269 368.849 183.054 369.774 183.054C370.519 183.054 371.184 183.192 371.768 183.469C372.352 183.742 372.823 184.126 373.181 184.62C373.543 185.114 373.758 185.692 373.826 186.352H371.966C371.864 185.892 371.629 185.496 371.263 185.163C370.901 184.831 370.415 184.665 369.806 184.665C369.273 184.665 368.806 184.805 368.406 185.087C368.009 185.364 367.701 185.76 367.479 186.276C367.257 186.787 367.147 187.392 367.147 188.091C367.147 188.807 367.255 189.425 367.473 189.945C367.69 190.464 367.997 190.867 368.393 191.153C368.794 191.438 369.264 191.581 369.806 191.581C370.168 191.581 370.496 191.515 370.79 191.383C371.088 191.246 371.338 191.053 371.538 190.801C371.742 190.55 371.885 190.247 371.966 189.893H373.826C373.758 190.528 373.551 191.095 373.206 191.594C372.861 192.092 372.399 192.484 371.819 192.77C371.244 193.055 370.568 193.198 369.793 193.198ZM378.321 179.909V193H376.41V179.909H378.321ZM385.568 193.198C384.648 193.198 383.844 192.987 383.158 192.565C382.472 192.143 381.94 191.553 381.56 190.795C381.181 190.036 380.991 189.15 380.991 188.136C380.991 187.117 381.181 186.227 381.56 185.464C381.94 184.701 382.472 184.109 383.158 183.687C383.844 183.265 384.648 183.054 385.568 183.054C386.489 183.054 387.292 183.265 387.978 183.687C388.664 184.109 389.197 184.701 389.576 185.464C389.955 186.227 390.145 187.117 390.145 188.136C390.145 189.15 389.955 190.036 389.576 190.795C389.197 191.553 388.664 192.143 387.978 192.565C387.292 192.987 386.489 193.198 385.568 193.198ZM385.575 191.594C386.171 191.594 386.665 191.436 387.058 191.121C387.45 190.805 387.739 190.386 387.927 189.862C388.119 189.337 388.214 188.76 388.214 188.129C388.214 187.503 388.119 186.928 387.927 186.403C387.739 185.875 387.45 185.451 387.058 185.131C386.665 184.812 386.171 184.652 385.575 184.652C384.974 184.652 384.475 184.812 384.079 185.131C383.687 185.451 383.395 185.875 383.203 186.403C383.016 186.928 382.922 187.503 382.922 188.129C382.922 188.76 383.016 189.337 383.203 189.862C383.395 190.386 383.687 190.805 384.079 191.121C384.475 191.436 384.974 191.594 385.575 191.594ZM399.038 188.928V183.182H400.955V193H399.076V191.3H398.974C398.748 191.824 398.386 192.261 397.887 192.61C397.393 192.955 396.777 193.128 396.04 193.128C395.409 193.128 394.851 192.989 394.365 192.712C393.884 192.431 393.504 192.016 393.227 191.466C392.955 190.916 392.818 190.237 392.818 189.427V183.182H394.729V189.197C394.729 189.866 394.915 190.398 395.286 190.795C395.656 191.191 396.138 191.389 396.73 191.389C397.088 191.389 397.444 191.3 397.798 191.121C398.156 190.942 398.452 190.671 398.686 190.309C398.925 189.947 399.042 189.487 399.038 188.928ZM407.739 193.192C406.946 193.192 406.239 192.989 405.617 192.585C404.999 192.175 404.513 191.594 404.159 190.839C403.81 190.081 403.635 189.171 403.635 188.11C403.635 187.049 403.812 186.141 404.166 185.387C404.524 184.633 405.014 184.055 405.636 183.655C406.258 183.254 406.963 183.054 407.751 183.054C408.361 183.054 408.851 183.156 409.222 183.361C409.597 183.561 409.886 183.795 410.091 184.064C410.3 184.332 410.462 184.569 410.577 184.773H410.692V179.909H412.603V193H410.737V191.472H410.577C410.462 191.681 410.296 191.92 410.078 192.188C409.865 192.457 409.571 192.691 409.196 192.891C408.821 193.092 408.335 193.192 407.739 193.192ZM408.161 191.562C408.71 191.562 409.175 191.417 409.554 191.127C409.938 190.833 410.227 190.426 410.423 189.906C410.624 189.386 410.724 188.781 410.724 188.091C410.724 187.409 410.626 186.812 410.43 186.301C410.234 185.79 409.946 185.391 409.567 185.106C409.188 184.82 408.719 184.678 408.161 184.678C407.585 184.678 407.106 184.827 406.722 185.125C406.339 185.423 406.049 185.83 405.853 186.346C405.661 186.862 405.565 187.443 405.565 188.091C405.565 188.747 405.663 189.337 405.859 189.862C406.055 190.386 406.345 190.801 406.729 191.108C407.117 191.411 407.594 191.562 408.161 191.562ZM418.357 191.21L418.261 191.907C418.198 192.418 418.089 192.951 417.935 193.505C417.786 194.063 417.631 194.581 417.469 195.058C417.311 195.536 417.181 195.915 417.079 196.196H415.724C415.779 195.932 415.856 195.574 415.954 195.122C416.052 194.675 416.148 194.174 416.242 193.62C416.335 193.066 416.406 192.501 416.453 191.926L416.516 191.21H418.357ZM430.365 193.192C429.572 193.192 428.865 192.989 428.242 192.585C427.624 192.175 427.139 191.594 426.785 190.839C426.436 190.081 426.261 189.171 426.261 188.11C426.261 187.049 426.438 186.141 426.791 185.387C427.149 184.633 427.639 184.055 428.262 183.655C428.884 183.254 429.589 183.054 430.377 183.054C430.987 183.054 431.477 183.156 431.848 183.361C432.223 183.561 432.512 183.795 432.717 184.064C432.926 184.332 433.088 184.569 433.203 184.773H433.318V179.909H435.229V193H433.362V191.472H433.203C433.088 191.681 432.921 191.92 432.704 192.188C432.491 192.457 432.197 192.691 431.822 192.891C431.447 193.092 430.961 193.192 430.365 193.192ZM430.786 191.562C431.336 191.562 431.801 191.417 432.18 191.127C432.563 190.833 432.853 190.426 433.049 189.906C433.249 189.386 433.35 188.781 433.35 188.091C433.35 187.409 433.252 186.812 433.056 186.301C432.86 185.79 432.572 185.391 432.193 185.106C431.813 184.82 431.345 184.678 430.786 184.678C430.211 184.678 429.732 184.827 429.348 185.125C428.965 185.423 428.675 185.83 428.479 186.346C428.287 186.862 428.191 187.443 428.191 188.091C428.191 188.747 428.289 189.337 428.485 189.862C428.681 190.386 428.971 190.801 429.355 191.108C429.742 191.411 430.22 191.562 430.786 191.562ZM442.728 193.198C441.761 193.198 440.928 192.991 440.229 192.578C439.534 192.161 438.997 191.575 438.618 190.82C438.243 190.062 438.056 189.173 438.056 188.155C438.056 187.149 438.243 186.263 438.618 185.496C438.997 184.729 439.526 184.13 440.203 183.7C440.885 183.269 441.682 183.054 442.594 183.054C443.148 183.054 443.685 183.146 444.205 183.329C444.725 183.512 445.191 183.8 445.605 184.192C446.018 184.584 446.344 185.093 446.583 185.719C446.821 186.342 446.941 187.098 446.941 187.989V188.666H439.136V187.234H445.068C445.068 186.732 444.965 186.286 444.761 185.898C444.556 185.506 444.269 185.197 443.898 184.972C443.532 184.746 443.101 184.633 442.607 184.633C442.07 184.633 441.601 184.765 441.201 185.029C440.804 185.289 440.497 185.63 440.28 186.052C440.067 186.469 439.96 186.923 439.96 187.413V188.532C439.96 189.188 440.076 189.746 440.306 190.207C440.54 190.667 440.866 191.018 441.284 191.261C441.701 191.5 442.189 191.619 442.747 191.619C443.11 191.619 443.44 191.568 443.738 191.466C444.036 191.359 444.294 191.202 444.512 190.993C444.729 190.784 444.895 190.526 445.01 190.219L446.819 190.545C446.674 191.078 446.414 191.545 446.039 191.945C445.669 192.342 445.202 192.651 444.639 192.872C444.081 193.089 443.444 193.198 442.728 193.198ZM449.601 196.682V183.182H451.468V184.773H451.627C451.738 184.569 451.898 184.332 452.107 184.064C452.316 183.795 452.605 183.561 452.976 183.361C453.347 183.156 453.837 183.054 454.446 183.054C455.239 183.054 455.946 183.254 456.568 183.655C457.191 184.055 457.679 184.633 458.032 185.387C458.39 186.141 458.569 187.049 458.569 188.11C458.569 189.171 458.392 190.081 458.039 190.839C457.685 191.594 457.199 192.175 456.581 192.585C455.963 192.989 455.258 193.192 454.465 193.192C453.869 193.192 453.381 193.092 453.002 192.891C452.627 192.691 452.333 192.457 452.12 192.188C451.907 191.92 451.742 191.681 451.627 191.472H451.512V196.682H449.601ZM451.474 188.091C451.474 188.781 451.574 189.386 451.774 189.906C451.975 190.426 452.264 190.833 452.644 191.127C453.023 191.417 453.488 191.562 454.037 191.562C454.608 191.562 455.086 191.411 455.469 191.108C455.853 190.801 456.142 190.386 456.338 189.862C456.539 189.337 456.639 188.747 456.639 188.091C456.639 187.443 456.541 186.862 456.345 186.346C456.153 185.83 455.863 185.423 455.475 185.125C455.092 184.827 454.613 184.678 454.037 184.678C453.483 184.678 453.014 184.82 452.631 185.106C452.252 185.391 451.964 185.79 451.768 186.301C451.572 186.812 451.474 187.409 451.474 188.091ZM463.162 179.909V193H461.251V179.909H463.162ZM470.409 193.198C469.488 193.198 468.685 192.987 467.999 192.565C467.313 192.143 466.78 191.553 466.401 190.795C466.022 190.036 465.832 189.15 465.832 188.136C465.832 187.117 466.022 186.227 466.401 185.464C466.78 184.701 467.313 184.109 467.999 183.687C468.685 183.265 469.488 183.054 470.409 183.054C471.329 183.054 472.132 183.265 472.818 183.687C473.504 184.109 474.037 184.701 474.416 185.464C474.796 186.227 474.985 187.117 474.985 188.136C474.985 189.15 474.796 190.036 474.416 190.795C474.037 191.553 473.504 192.143 472.818 192.565C472.132 192.987 471.329 193.198 470.409 193.198ZM470.415 191.594C471.012 191.594 471.506 191.436 471.898 191.121C472.29 190.805 472.58 190.386 472.767 189.862C472.959 189.337 473.055 188.76 473.055 188.129C473.055 187.503 472.959 186.928 472.767 186.403C472.58 185.875 472.29 185.451 471.898 185.131C471.506 184.812 471.012 184.652 470.415 184.652C469.814 184.652 469.316 184.812 468.919 185.131C468.527 185.451 468.235 185.875 468.044 186.403C467.856 186.928 467.762 187.503 467.762 188.129C467.762 188.76 467.856 189.337 468.044 189.862C468.235 190.386 468.527 190.805 468.919 191.121C469.316 191.436 469.814 191.594 470.415 191.594ZM478.533 196.682C478.247 196.682 477.987 196.658 477.753 196.612C477.519 196.569 477.344 196.522 477.229 196.471L477.689 194.905C478.038 194.999 478.35 195.039 478.622 195.026C478.895 195.013 479.136 194.911 479.345 194.719C479.558 194.528 479.745 194.214 479.907 193.78L480.144 193.128L476.551 183.182H478.597L481.083 190.801H481.185L483.672 183.182H485.724L481.678 194.31C481.49 194.822 481.252 195.254 480.962 195.608C480.672 195.966 480.327 196.234 479.926 196.413C479.526 196.592 479.061 196.682 478.533 196.682ZM488.06 193V183.182H489.895V184.78H490.016C490.221 184.239 490.555 183.817 491.02 183.514C491.484 183.207 492.04 183.054 492.688 183.054C493.344 183.054 493.894 183.207 494.337 183.514C494.784 183.821 495.115 184.243 495.328 184.78H495.43C495.664 184.256 496.037 183.838 496.549 183.527C497.06 183.212 497.669 183.054 498.377 183.054C499.267 183.054 499.994 183.333 500.556 183.891C501.123 184.45 501.407 185.291 501.407 186.416V193H499.495V186.595C499.495 185.93 499.314 185.449 498.952 185.151C498.59 184.852 498.157 184.703 497.654 184.703C497.032 184.703 496.549 184.895 496.203 185.278C495.858 185.658 495.686 186.146 495.686 186.742V193H493.781V186.474C493.781 185.941 493.615 185.513 493.282 185.189C492.95 184.865 492.517 184.703 491.985 184.703C491.623 184.703 491.288 184.799 490.981 184.991C490.679 185.178 490.434 185.44 490.246 185.777C490.063 186.114 489.971 186.504 489.971 186.947V193H488.06ZM508.74 193.198C507.772 193.198 506.939 192.991 506.24 192.578C505.546 192.161 505.009 191.575 504.63 190.82C504.255 190.062 504.067 189.173 504.067 188.155C504.067 187.149 504.255 186.263 504.63 185.496C505.009 184.729 505.537 184.13 506.215 183.7C506.897 183.269 507.694 183.054 508.605 183.054C509.159 183.054 509.696 183.146 510.216 183.329C510.736 183.512 511.203 183.8 511.616 184.192C512.029 184.584 512.355 185.093 512.594 185.719C512.833 186.342 512.952 187.098 512.952 187.989V188.666H505.147V187.234H511.079C511.079 186.732 510.977 186.286 510.772 185.898C510.568 185.506 510.28 185.197 509.909 184.972C509.543 184.746 509.113 184.633 508.618 184.633C508.081 184.633 507.613 184.765 507.212 185.029C506.816 185.289 506.509 185.63 506.292 186.052C506.079 186.469 505.972 186.923 505.972 187.413V188.532C505.972 189.188 506.087 189.746 506.317 190.207C506.552 190.667 506.878 191.018 507.295 191.261C507.713 191.5 508.201 191.619 508.759 191.619C509.121 191.619 509.451 191.568 509.75 191.466C510.048 191.359 510.306 191.202 510.523 190.993C510.74 190.784 510.907 190.526 511.022 190.219L512.831 190.545C512.686 191.078 512.426 191.545 512.051 191.945C511.68 192.342 511.213 192.651 510.651 192.872C510.093 193.089 509.456 193.198 508.74 193.198ZM517.524 187.17V193H515.613V183.182H517.447V184.78H517.569C517.794 184.26 518.148 183.842 518.63 183.527C519.115 183.212 519.727 183.054 520.464 183.054C521.133 183.054 521.719 183.195 522.222 183.476C522.725 183.753 523.115 184.166 523.392 184.716C523.669 185.266 523.807 185.945 523.807 186.755V193H521.896V186.985C521.896 186.273 521.711 185.717 521.34 185.317C520.969 184.912 520.46 184.71 519.812 184.71C519.369 184.71 518.975 184.805 518.63 184.997C518.289 185.189 518.018 185.47 517.818 185.841C517.622 186.207 517.524 186.651 517.524 187.17ZM531.494 183.182V184.716H526.131V183.182H531.494ZM527.569 180.83H529.48V190.117C529.48 190.488 529.535 190.767 529.646 190.955C529.757 191.138 529.9 191.263 530.075 191.332C530.254 191.396 530.447 191.428 530.656 191.428C530.81 191.428 530.944 191.417 531.059 191.396C531.174 191.374 531.263 191.357 531.327 191.344L531.673 192.923C531.562 192.966 531.404 193.009 531.2 193.051C530.995 193.098 530.739 193.124 530.432 193.128C529.93 193.136 529.461 193.047 529.026 192.859C528.592 192.672 528.24 192.382 527.972 191.99C527.703 191.598 527.569 191.106 527.569 190.513V180.83ZM541.347 185.579L539.615 185.886C539.542 185.664 539.427 185.453 539.269 185.253C539.116 185.053 538.907 184.888 538.643 184.761C538.379 184.633 538.048 184.569 537.652 184.569C537.111 184.569 536.659 184.69 536.297 184.933C535.935 185.172 535.754 185.481 535.754 185.86C535.754 186.188 535.875 186.452 536.118 186.653C536.361 186.853 536.753 187.017 537.294 187.145L538.854 187.503C539.757 187.712 540.431 188.033 540.874 188.468C541.317 188.903 541.539 189.467 541.539 190.162C541.539 190.75 541.368 191.274 541.027 191.734C540.691 192.19 540.22 192.548 539.615 192.808C539.014 193.068 538.317 193.198 537.524 193.198C536.425 193.198 535.528 192.964 534.833 192.495C534.139 192.022 533.713 191.351 533.555 190.482L535.402 190.2C535.517 190.682 535.754 191.046 536.112 191.293C536.47 191.536 536.936 191.658 537.512 191.658C538.138 191.658 538.639 191.528 539.014 191.268C539.389 191.004 539.576 190.682 539.576 190.303C539.576 189.996 539.461 189.738 539.231 189.529C539.005 189.32 538.658 189.163 538.189 189.056L536.527 188.692C535.611 188.483 534.933 188.151 534.494 187.695C534.06 187.239 533.842 186.661 533.842 185.962C533.842 185.383 534.004 184.876 534.328 184.441C534.652 184.006 535.1 183.668 535.671 183.425C536.242 183.178 536.896 183.054 537.633 183.054C538.694 183.054 539.529 183.284 540.139 183.744C540.748 184.2 541.151 184.812 541.347 185.579ZM546.666 191.21L546.571 191.907C546.507 192.418 546.398 192.951 546.245 193.505C546.095 194.063 545.94 194.581 545.778 195.058C545.62 195.536 545.49 195.915 545.388 196.196H544.033C544.088 195.932 544.165 195.574 544.263 195.122C544.361 194.675 544.457 194.174 544.551 193.62C544.644 193.066 544.715 192.501 544.762 191.926L544.826 191.21H546.666ZM557.855 193.217C557.233 193.217 556.671 193.102 556.168 192.872C555.665 192.638 555.267 192.299 554.973 191.856C554.683 191.413 554.538 190.869 554.538 190.226C554.538 189.672 554.644 189.216 554.858 188.858C555.071 188.5 555.358 188.217 555.72 188.008C556.083 187.799 556.488 187.641 556.935 187.535C557.382 187.428 557.838 187.347 558.303 187.292C558.891 187.224 559.368 187.168 559.735 187.126C560.101 187.079 560.367 187.004 560.534 186.902C560.7 186.8 560.783 186.634 560.783 186.403V186.359C560.783 185.8 560.625 185.368 560.31 185.061C559.999 184.754 559.534 184.601 558.917 184.601C558.273 184.601 557.766 184.744 557.395 185.029C557.029 185.31 556.775 185.624 556.635 185.969L554.838 185.56C555.051 184.963 555.363 184.482 555.772 184.115C556.185 183.744 556.66 183.476 557.197 183.31C557.734 183.139 558.299 183.054 558.891 183.054C559.283 183.054 559.698 183.101 560.137 183.195C560.581 183.284 560.994 183.45 561.377 183.693C561.765 183.936 562.083 184.283 562.33 184.735C562.577 185.183 562.701 185.764 562.701 186.48V193H560.834V191.658H560.757C560.634 191.905 560.448 192.148 560.201 192.386C559.954 192.625 559.637 192.823 559.249 192.981C558.861 193.138 558.397 193.217 557.855 193.217ZM558.271 191.683C558.799 191.683 559.251 191.579 559.626 191.37C560.005 191.161 560.293 190.888 560.489 190.552C560.689 190.211 560.789 189.847 560.789 189.459V188.193C560.721 188.261 560.589 188.325 560.393 188.385C560.201 188.44 559.982 188.489 559.735 188.532C559.488 188.57 559.247 188.607 559.012 188.641C558.778 188.67 558.582 188.696 558.424 188.717C558.054 188.764 557.715 188.843 557.408 188.954C557.105 189.065 556.863 189.224 556.679 189.433C556.5 189.638 556.411 189.911 556.411 190.251C556.411 190.724 556.586 191.082 556.935 191.325C557.284 191.564 557.73 191.683 558.271 191.683ZM567.697 187.17V193H565.786V183.182H567.621V184.78H567.742C567.968 184.26 568.322 183.842 568.803 183.527C569.289 183.212 569.901 183.054 570.638 183.054C571.307 183.054 571.893 183.195 572.396 183.476C572.898 183.753 573.288 184.166 573.565 184.716C573.842 185.266 573.981 185.945 573.981 186.755V193H572.07V186.985C572.07 186.273 571.884 185.717 571.514 185.317C571.143 184.912 570.634 184.71 569.986 184.71C569.543 184.71 569.148 184.805 568.803 184.997C568.462 185.189 568.192 185.47 567.992 185.841C567.795 186.207 567.697 186.651 567.697 187.17ZM580.759 193.192C579.967 193.192 579.259 192.989 578.637 192.585C578.019 192.175 577.534 191.594 577.18 190.839C576.831 190.081 576.656 189.171 576.656 188.11C576.656 187.049 576.833 186.141 577.186 185.387C577.544 184.633 578.034 184.055 578.656 183.655C579.279 183.254 579.984 183.054 580.772 183.054C581.382 183.054 581.872 183.156 582.242 183.361C582.617 183.561 582.907 183.795 583.112 184.064C583.321 184.332 583.482 184.569 583.598 184.773H583.713V179.909H585.624V193H583.757V191.472H583.598C583.482 191.681 583.316 191.92 583.099 192.188C582.886 192.457 582.592 192.691 582.217 192.891C581.842 193.092 581.356 193.192 580.759 193.192ZM581.181 191.562C581.731 191.562 582.196 191.417 582.575 191.127C582.958 190.833 583.248 190.426 583.444 189.906C583.644 189.386 583.745 188.781 583.745 188.091C583.745 187.409 583.647 186.812 583.451 186.301C583.255 185.79 582.967 185.391 582.588 185.106C582.208 184.82 581.74 184.678 581.181 184.678C580.606 184.678 580.127 184.827 579.743 185.125C579.36 185.423 579.07 185.83 578.874 186.346C578.682 186.862 578.586 187.443 578.586 188.091C578.586 188.747 578.684 189.337 578.88 189.862C579.076 190.386 579.366 190.801 579.75 191.108C580.137 191.411 580.615 191.562 581.181 191.562ZM594.195 193V183.182H596.03V184.78H596.151C596.356 184.239 596.69 183.817 597.155 183.514C597.619 183.207 598.175 183.054 598.823 183.054C599.479 183.054 600.029 183.207 600.472 183.514C600.92 183.821 601.25 184.243 601.463 184.78H601.565C601.8 184.256 602.173 183.838 602.684 183.527C603.195 183.212 603.805 183.054 604.512 183.054C605.403 183.054 606.129 183.333 606.692 183.891C607.259 184.45 607.542 185.291 607.542 186.416V193H605.631V186.595C605.631 185.93 605.45 185.449 605.087 185.151C604.725 184.852 604.293 184.703 603.79 184.703C603.168 184.703 602.684 184.895 602.339 185.278C601.994 185.658 601.821 186.146 601.821 186.742V193H599.916V186.474C599.916 185.941 599.75 185.513 599.418 185.189C599.085 184.865 598.653 184.703 598.12 184.703C597.758 184.703 597.423 184.799 597.116 184.991C596.814 185.178 596.569 185.44 596.381 185.777C596.198 186.114 596.107 186.504 596.107 186.947V193H594.195ZM614.779 193.198C613.859 193.198 613.055 192.987 612.369 192.565C611.683 192.143 611.151 191.553 610.771 190.795C610.392 190.036 610.202 189.15 610.202 188.136C610.202 187.117 610.392 186.227 610.771 185.464C611.151 184.701 611.683 184.109 612.369 183.687C613.055 183.265 613.859 183.054 614.779 183.054C615.7 183.054 616.503 183.265 617.189 183.687C617.875 184.109 618.408 184.701 618.787 185.464C619.166 186.227 619.356 187.117 619.356 188.136C619.356 189.15 619.166 190.036 618.787 190.795C618.408 191.553 617.875 192.143 617.189 192.565C616.503 192.987 615.7 193.198 614.779 193.198ZM614.786 191.594C615.382 191.594 615.876 191.436 616.269 191.121C616.661 190.805 616.95 190.386 617.138 189.862C617.33 189.337 617.425 188.76 617.425 188.129C617.425 187.503 617.33 186.928 617.138 186.403C616.95 185.875 616.661 185.451 616.269 185.131C615.876 184.812 615.382 184.652 614.786 184.652C614.185 184.652 613.686 184.812 613.29 185.131C612.898 185.451 612.606 185.875 612.414 186.403C612.227 186.928 612.133 187.503 612.133 188.129C612.133 188.76 612.227 189.337 612.414 189.862C612.606 190.386 612.898 190.805 613.29 191.121C613.686 191.436 614.185 191.594 614.786 191.594ZM622.029 193V183.182H623.876V184.741H623.979C624.158 184.213 624.473 183.798 624.925 183.495C625.381 183.188 625.896 183.035 626.472 183.035C626.591 183.035 626.732 183.039 626.894 183.048C627.06 183.056 627.19 183.067 627.283 183.08V184.908C627.207 184.886 627.07 184.863 626.874 184.837C626.678 184.808 626.482 184.793 626.286 184.793C625.835 184.793 625.432 184.888 625.078 185.08C624.729 185.268 624.452 185.53 624.247 185.866C624.043 186.199 623.94 186.578 623.94 187.004V193H622.029ZM633.357 193.198C632.39 193.198 631.557 192.991 630.858 192.578C630.164 192.161 629.627 191.575 629.247 190.82C628.872 190.062 628.685 189.173 628.685 188.155C628.685 187.149 628.872 186.263 629.247 185.496C629.627 184.729 630.155 184.13 630.833 183.7C631.514 183.269 632.311 183.054 633.223 183.054C633.777 183.054 634.314 183.146 634.834 183.329C635.354 183.512 635.82 183.8 636.234 184.192C636.647 184.584 636.973 185.093 637.212 185.719C637.45 186.342 637.57 187.098 637.57 187.989V188.666H629.765V187.234H635.697C635.697 186.732 635.595 186.286 635.39 185.898C635.186 185.506 634.898 185.197 634.527 184.972C634.161 184.746 633.73 184.633 633.236 184.633C632.699 184.633 632.23 184.765 631.83 185.029C631.433 185.289 631.127 185.63 630.909 186.052C630.696 186.469 630.59 186.923 630.59 187.413V188.532C630.59 189.188 630.705 189.746 630.935 190.207C631.169 190.667 631.495 191.018 631.913 191.261C632.33 191.5 632.818 191.619 633.377 191.619C633.739 191.619 634.069 191.568 634.367 191.466C634.666 191.359 634.923 191.202 635.141 190.993C635.358 190.784 635.524 190.526 635.639 190.219L637.448 190.545C637.303 191.078 637.043 191.545 636.668 191.945C636.298 192.342 635.831 192.651 635.269 192.872C634.71 193.089 634.073 193.198 633.357 193.198ZM641.49 193.121C641.14 193.121 640.84 192.998 640.588 192.751C640.337 192.499 640.211 192.197 640.211 191.843C640.211 191.494 640.337 191.195 640.588 190.948C640.84 190.697 641.14 190.571 641.49 190.571C641.839 190.571 642.139 190.697 642.391 190.948C642.642 191.195 642.768 191.494 642.768 191.843C642.768 192.077 642.708 192.293 642.589 192.489C642.474 192.68 642.32 192.834 642.129 192.949C641.937 193.064 641.724 193.121 641.49 193.121Z" fill="#A3A8C0"/>
<defs>
<linearGradient id="paint0_linear_30_609" x1="448.973" y1="92" x2="449.586" y2="3.62759e-06" gradientUnits="userSpaceOnUse">
<stop stop-color="#F0EEFA" stop-opacity="0.8"/>
<stop offset="1" stop-color="#E1E8FF"/>
</linearGradient>
<linearGradient id="paint1_linear_30_609" x1="0.279297" y1="129" x2="898.279" y2="129" gradientUnits="userSpaceOnUse">
<stop stop-color="#B67DFC"/>
<stop offset="0.225962" stop-color="#EF84D5"/>
<stop offset="0.495192" stop-color="#FFAC87"/>
<stop offset="1" stop-color="#FFDAA5"/>
</linearGradient>
</defs>
</svg>
